<svg xmlns="http://www.w3.org/2000/svg" xmlns:xlink="http://www.w3.org/1999/xlink" version="1.1" width="256" height="256" viewBox="0 0 256 256" xml:space="preserve">

<defs>
</defs>
<g style="stroke: none; stroke-width: 0; stroke-dasharray: none; stroke-linecap: butt; stroke-linejoin: miter; stroke-miterlimit: 10; fill: none; fill-rule: nonzero; opacity: 1;" transform="translate(1.4065934065934016 1.4065934065934016) scale(2.81 2.81)" >
	<path d="M 64.193 89.986 c -8.349 0 -19.507 -2.624 -28.871 -8.279 c -0.3 -0.182 -0.483 -0.506 -0.483 -0.857 V 75.26 c 0 -0.553 0.448 -1 1 -1 s 1 0.447 1 1 v 5.022 c 11.941 7.03 26.629 9.051 34.06 6.916 c 2.315 -0.663 3.892 -1.711 4.561 -3.031 c 0.023 -0.047 0.051 -0.092 0.081 -0.134 c 1.087 -1.503 1.045 -3.74 -0.132 -7.042 c -0.499 -1.621 1.161 -2.203 1.96 -2.483 c 0.351 -0.123 1.003 -0.352 1.107 -0.522 c 0.041 -1.003 -0.876 -1.423 -2.835 -2.076 c -0.673 -0.225 -1.369 -0.456 -1.987 -0.766 c -0.406 -0.203 -0.624 -0.654 -0.532 -1.098 c 0.093 -0.444 0.472 -0.771 0.925 -0.795 c 2.678 -0.148 5.08 -1.092 5.17 -1.607 c -0.108 -0.284 -0.306 -0.677 -0.519 -1.105 c -0.81 -1.629 -1.648 -3.314 -0.995 -4.504 c 0.165 -0.302 0.578 -0.821 1.488 -0.917 c 1.607 -0.216 3.633 -1.257 4.308 -2.226 c 0.106 -0.153 0.227 -0.372 0.189 -0.542 c -0.119 -0.578 -1.423 -2.02 -2.574 -3.293 c -2.758 -3.049 -6.535 -7.226 -6.626 -11.621 c -0.16 -12.239 -1.93 -20.322 -5.919 -27.037 C 62.698 7.296 51.641 1.947 38.992 1.987 V 18.43 h 7.508 c 0.553 0 1 0.448 1 1 c 0 0.552 -0.447 1 -1 1 h -8.508 c -0.552 0 -1 -0.448 -1 -1 V 1.002 c 0 -0.543 0.433 -0.986 0.975 -1 C 51.76 -0.355 63.847 5.388 70.269 15.345 c 4.199 7.069 6.054 15.45 6.219 28.057 c 0.075 3.642 3.563 7.497 6.109 10.313 c 1.638 1.811 2.821 3.12 3.046 4.215 c 0.105 0.469 0.106 1.232 -0.503 2.106 c -1.142 1.639 -3.766 2.797 -5.673 3.063 c 0.036 0.566 0.692 1.884 1.023 2.55 c 0.242 0.488 0.464 0.938 0.603 1.293 c 0.224 0.686 0.124 1.338 -0.259 1.895 c -0.559 0.814 -1.717 1.381 -2.969 1.761 c 1.407 0.617 2.692 1.583 2.603 3.506 c -0.084 1.467 -1.5 1.963 -2.437 2.292 c -0.19 0.066 -0.445 0.156 -0.626 0.236 c 0.841 2.432 1.655 5.877 -0.196 8.509 c -0.952 1.819 -2.889 3.157 -5.757 3.98 C 69.461 89.693 66.983 89.986 64.193 89.986 z" style="stroke: none; stroke-width: 1; stroke-dasharray: none; stroke-linecap: butt; stroke-linejoin: miter; stroke-miterlimit: 10; fill: rgb(0,0,0); fill-rule: nonzero; opacity: 1;" transform=" matrix(1 0 0 1 0 0) " stroke-linecap="round" />
	<path d="M 44.029 32.065 H 21.798 c -0.552 0 -1 -0.448 -1 -1 V 17.716 c 0 -0.552 0.448 -1 1 -1 s 1 0.448 1 1 v 12.348 h 21.231 c 0.552 0 1 0.448 1 1 S 44.582 32.065 44.029 32.065 z" style="stroke: none; stroke-width: 1; stroke-dasharray: none; stroke-linecap: butt; stroke-linejoin: miter; stroke-miterlimit: 10; fill: rgb(0,0,0); fill-rule: nonzero; opacity: 1;" transform=" matrix(1 0 0 1 0 0) " stroke-linecap="round" />
	<path d="M 18.243 64.166 c -0.552 0 -1 -0.447 -1 -1 v -7.782 c 0 -0.553 0.448 -1 1 -1 h 26.555 c 0.552 0 1 0.447 1 1 s -0.448 1 -1 1 H 19.243 v 6.781 C 19.243 63.718 18.795 64.166 18.243 64.166 z" style="stroke: none; stroke-width: 1; stroke-dasharray: none; stroke-linecap: butt; stroke-linejoin: miter; stroke-miterlimit: 10; fill: rgb(0,0,0); fill-rule: nonzero; opacity: 1;" transform=" matrix(1 0 0 1 0 0) " stroke-linecap="round" />
	<path d="M 49.801 44.698 h -35.05 c -0.552 0 -1 -0.448 -1 -1 c 0 -0.552 0.448 -1 1 -1 h 35.05 c 0.553 0 1 0.448 1 1 C 50.802 44.25 50.354 44.698 49.801 44.698 z" style="stroke: none; stroke-width: 1; stroke-dasharray: none; stroke-linecap: butt; stroke-linejoin: miter; stroke-miterlimit: 10; fill: rgb(0,0,0); fill-rule: nonzero; opacity: 1;" transform=" matrix(1 0 0 1 0 0) " stroke-linecap="round" />
	<path d="M 64.132 44.698 H 58.36 c -0.553 0 -1 -0.448 -1 -1 c 0 -0.552 0.447 -1 1 -1 h 5.771 c 0.553 0 1 0.448 1 1 C 65.132 44.25 64.685 44.698 64.132 44.698 z" style="stroke: none; stroke-width: 1; stroke-dasharray: none; stroke-linecap: butt; stroke-linejoin: miter; stroke-miterlimit: 10; fill: rgb(0,0,0); fill-rule: nonzero; opacity: 1;" transform=" matrix(1 0 0 1 0 0) " stroke-linecap="round" />
	<path d="M 21.798 18.717 c -3.156 0 -5.723 -2.568 -5.723 -5.723 s 2.568 -5.723 5.723 -5.723 s 5.723 2.568 5.723 5.723 S 24.954 18.717 21.798 18.717 z M 21.798 9.271 c -2.053 0 -3.723 1.67 -3.723 3.723 s 1.67 3.723 3.723 3.723 s 3.723 -1.67 3.723 -3.723 S 23.851 9.271 21.798 9.271 z" style="stroke: none; stroke-width: 1; stroke-dasharray: none; stroke-linecap: butt; stroke-linejoin: miter; stroke-miterlimit: 10; fill: rgb(0,0,0); fill-rule: nonzero; opacity: 1;" transform=" matrix(1 0 0 1 0 0) " stroke-linecap="round" />
	<path d="M 51.637 24.743 c -3.156 0 -5.723 -2.568 -5.723 -5.723 c 0 -3.156 2.567 -5.724 5.723 -5.724 c 3.156 0 5.723 2.568 5.723 5.724 C 57.36 22.175 54.793 24.743 51.637 24.743 z M 51.637 15.296 c -2.052 0 -3.723 1.67 -3.723 3.723 s 1.67 3.723 3.723 3.723 s 3.723 -1.67 3.723 -3.723 S 53.689 15.296 51.637 15.296 z" style="stroke: none; stroke-width: 1; stroke-dasharray: none; stroke-linecap: butt; stroke-linejoin: miter; stroke-miterlimit: 10; fill: rgb(0,0,0); fill-rule: nonzero; opacity: 1;" transform=" matrix(1 0 0 1 0 0) " stroke-linecap="round" />
	<path d="M 10.028 49.421 c -3.156 0 -5.723 -2.568 -5.723 -5.724 c 0 -3.156 2.568 -5.723 5.723 -5.723 c 3.156 0 5.724 2.568 5.724 5.723 C 15.752 46.853 13.184 49.421 10.028 49.421 z M 10.028 39.975 c -2.053 0 -3.723 1.67 -3.723 3.723 c 0 2.053 1.67 3.723 3.723 3.723 s 3.723 -1.67 3.723 -3.723 C 13.751 41.645 12.081 39.975 10.028 39.975 z" style="stroke: none; stroke-width: 1; stroke-dasharray: none; stroke-linecap: butt; stroke-linejoin: miter; stroke-miterlimit: 10; fill: rgb(0,0,0); fill-rule: nonzero; opacity: 1;" transform=" matrix(1 0 0 1 0 0) " stroke-linecap="round" />
	<path d="M 18.243 73.613 c -3.156 0 -5.723 -2.568 -5.723 -5.724 s 2.568 -5.723 5.723 -5.723 s 5.723 2.567 5.723 5.723 S 21.398 73.613 18.243 73.613 z M 18.243 64.166 c -2.053 0 -3.723 1.67 -3.723 3.723 c 0 2.053 1.67 3.724 3.723 3.724 s 3.723 -1.67 3.723 -3.724 C 21.965 65.836 20.295 64.166 18.243 64.166 z" style="stroke: none; stroke-width: 1; stroke-dasharray: none; stroke-linecap: butt; stroke-linejoin: miter; stroke-miterlimit: 10; fill: rgb(0,0,0); fill-rule: nonzero; opacity: 1;" transform=" matrix(1 0 0 1 0 0) " stroke-linecap="round" />
	<path d="M 35.84 76.26 c -3.156 0 -5.723 -2.567 -5.723 -5.723 c 0 -3.156 2.568 -5.723 5.723 -5.723 c 3.156 0 5.724 2.567 5.724 5.723 C 41.563 73.693 38.996 76.26 35.84 76.26 z M 35.84 66.814 c -2.053 0 -3.723 1.67 -3.723 3.723 c 0 2.052 1.67 3.723 3.723 3.723 s 3.723 -1.67 3.723 -3.723 C 39.563 68.485 37.892 66.814 35.84 66.814 z" style="stroke: none; stroke-width: 1; stroke-dasharray: none; stroke-linecap: butt; stroke-linejoin: miter; stroke-miterlimit: 10; fill: rgb(0,0,0); fill-rule: nonzero; opacity: 1;" transform=" matrix(1 0 0 1 0 0) " stroke-linecap="round" />
</g>
</svg>